<svg height="512pt" viewBox="0 0 512 512" width="512pt" xmlns="http://www.w3.org/2000/svg"><path d="m504.5 256c0 24.464844-3.535156 48.09375-10.121094 70.425781-15.433594 52.316407-47.625 97.460938-90.367187 129.195313-41.34375 30.714844-92.550781 48.878906-148.011719 48.878906-137.238281 0-248.5-111.261719-248.5-248.5 0-68.675781 27.859375-130.839844 72.894531-175.820312 44.960938-44.90625 107.039063-72.679688 175.605469-72.679688 51.46875 0 99.277344 15.648438 138.9375 42.445312 66.105469 44.65625 109.5625 120.28125 109.5625 206.054688zm0 0" fill="#5f9eeb"/><path d="m504.5 256c0 24.46875-3.539062 48.089844-10.121094 70.429688-15.429687 52.308593-47.628906 97.460937-90.367187 129.191406-41.339844 30.71875-92.550781 48.878906-148.011719 48.878906-5.601562 0-11.160156-.191406-16.671875-.550781 49.042969-3.25 94.183594-20.710938 131.34375-48.328125 42.738281-31.730469 74.929687-76.882813 90.367187-129.191406 6.582032-22.339844 10.121094-45.960938 10.121094-70.429688 0-85.769531-43.460937-161.398438-109.558594-206.050781-35.351562-23.890625-77.179687-38.917969-122.300781-41.898438 5.519531-.359375 11.089844-.550781 16.699219-.550781 51.46875 0 99.28125 15.648438 138.941406 42.449219 66.097656 44.652343 109.558594 120.28125 109.558594 206.050781zm0 0" fill="#3a82d0"/><path d="m504.5 256c0 24.46875-3.539062 48.089844-10.121094 70.429688l-27.007812-27.007813-17.214844-17.21875c-1.460938-1.460937-3.339844-2.429687-5.375-2.78125l-50.730469-8.734375c-2.039062-.347656-3.914062-1.324219-5.375-2.785156l-7.128906-7.125c-1.875-1.875-2.929687-4.417969-2.929687-7.070313v-68.527343c0-2.652344 1.054687-5.195313 2.929687-7.070313l10.464844-10.460937c1.875-1.875 2.925781-4.417969 2.925781-7.070313v-110.628906c66.101562 44.652343 109.5625 120.28125 109.5625 206.050781zm0 0" fill="#a0d37d"/><path d="m504.5 256c0 24.46875-3.539062 48.089844-10.121094 70.429688l-27.007812-27.007813c2.488281-14.101563 3.789062-28.601563 3.789062-43.421875 0-70.351562-29.230468-133.871094-76.21875-179.070312v-26.980469c66.097656 44.652343 109.558594 120.28125 109.558594 206.050781zm0 0" fill="#84b75b"/><path d="m404.015625 406.84375v48.777344c-41.335937 30.703125-92.523437 48.867187-147.96875 48.878906-135.222656.023438-246.289063-109.117188-248.511719-244.320312-1.15625-70.328126 26.914063-134.109376 72.863282-180l19.136718 53.058593c1.558594 4.316407 5.652344 7.191407 10.238282 7.191407h74.371093c2.886719 0 5.65625 1.144531 7.699219 3.1875l32.902344 32.902343c2.039062 2.042969 3.1875 4.808594 3.1875 7.695313v126.179687c0 2.882813 1.144531 5.652344 3.1875 7.695313l26.4375 26.4375c2.042968 2.039062 4.808594 3.1875 7.695312 3.1875h79.628906c2.886719 0 5.65625 1.148437 7.695313 3.1875l48.25 48.25c2.039063 2.039062 3.1875 4.808594 3.1875 7.691406zm0 0" fill="#a0d37d"/><path d="m404.011719 425.890625v29.730469c-41.332031 30.707031-92.523438 48.867187-147.960938 48.878906-5.601562 0-11.160156-.191406-16.671875-.550781 49.019532-3.257813 94.140625-20.71875 131.292969-48.328125 11.988281-8.902344 23.148437-18.859375 33.339844-29.730469zm0 0" fill="#84b75b"/><path d="m316.519531 227.46875c0 35.746094-53.011719 131.464844-72.191406 164.921875-3.023437 5.269531-10.617187 5.269531-13.640625 0-19.175781-33.457031-72.191406-129.179687-72.191406-164.921875 0-43.636719 35.375-79.011719 79.011718-79.011719 43.636719 0 79.011719 35.375 79.011719 79.011719zm0 0" fill="#eb5777"/><path d="m274.128906 218.96875c0 20.226562-16.394531 36.625-36.621094 36.625-20.226562 0-36.621093-16.398438-36.621093-36.625 0-20.222656 16.394531-36.621094 36.621093-36.621094 20.226563 0 36.621094 16.398438 36.621094 36.621094zm0 0" fill="#ebeef2"/><path d="m491.832031 156.242188c-1.613281-3.8125-6.015625-5.597657-9.828125-3.980469-3.816406 1.617187-5.597656 6.015625-3.984375 9.832031 12.59375 29.738281 18.980469 61.332031 18.980469 93.90625 0 19.039062-2.222656 37.78125-6.527344 55.914062l-35.015625-35.015624c-2.570312-2.570313-5.820312-4.253907-9.40625-4.871094l-50.726562-8.730469c-.511719-.089844-.976563-.328125-1.34375-.695313l-7.128907-7.128906c-.464843-.464844-.734374-1.109375-.734374-1.769531v-68.519531c0-.660156.269531-1.304688.734374-1.769532l10.460938-10.460937c3.304688-3.304687 5.125-7.699219 5.125-12.375v-95.976563c24.171875 18.535157 44.78125 41.574219 60.484375 67.800782 2.125 3.554687 6.730469 4.710937 10.285156 2.582031 3.554688-2.128906 4.710938-6.734375 2.582031-10.289063-22.335937-37.308593-54.023437-68.554687-91.632812-90.347656-38.777344-22.46875-83.089844-34.347656-128.15625-34.347656-68.378906 0-132.667969 26.628906-181.019531 74.980469-48.351563 48.351562-74.980469 112.640625-74.980469 181.019531 0 41.167969 10.007812 82.089844 28.945312 118.34375 18.324219 35.074219 44.992188 65.90625 77.128907 89.164062 1.328125.960938 2.867187 1.425782 4.390625 1.425782 2.324218 0 4.617187-1.078125 6.082031-3.105469 2.429687-3.351563 1.679687-8.042969-1.675781-10.472656-30.265625-21.902344-55.378906-50.933594-72.628906-83.957031-17.820313-34.117188-27.242188-72.636719-27.242188-111.398438 0-60.429688 22.09375-117.460938 62.453125-161.878906l15.03125 41.664062c2.617187 7.265625 9.570313 12.144532 17.289063 12.144532h74.371093c.90625 0 1.753907.351562 2.394531.992187l5.179688 5.179687c-24.4375 15.304688-40.722656 42.46875-40.722656 73.367188 0 36.980469 51.179687 130.261719 73.183594 168.652344 2.773437 4.835937 7.753906 7.722656 13.328124 7.722656 5.574219 0 10.554688-2.886719 13.328126-7.722656 5.9375-10.363282 14.007812-24.730469 22.617187-40.90625h71.429687c.902344 0 1.75.351562 2.390626.988281l48.25 48.25c.636718.640625.992187 1.488281.992187 2.394531v44.988282c-37.402344 26.917968-81.78125 42.582031-128.550781 44.867187-4.136719.203125-7.328125 3.722656-7.125 7.859375.195312 4.011719 3.511718 7.132812 7.484375 7.132812.125 0 .25-.003906.371093-.007812 65.683594-3.210938 126.933594-31.234375 172.460938-78.90625 45.683594-47.832031 70.84375-110.613281 70.84375-176.78125 0-34.59375-6.785156-68.15625-20.167969-99.757812zm-254.011719 232.417968c-.054687.09375-.105468.183594-.3125.183594-.207031 0-.257812-.089844-.3125-.183594-16.703124-29.136718-71.199218-126.878906-71.199218-161.191406 0-39.429688 32.082031-71.511719 71.511718-71.511719 39.429688 0 71.511719 32.082031 71.511719 71.511719 0 34.3125-54.496093 132.054688-71.199219 161.191406zm192.488282 33.761719c-5.984375 6.265625-12.265625 12.15625-18.792969 17.6875v-33.261719c0-4.910156-1.914063-9.527344-5.386719-13l-48.246094-48.25c-3.472656-3.472656-8.089843-5.382812-13-5.382812h-63.566406c21.148438-41.03125 42.703125-88.742188 42.703125-112.746094 0-47.703125-38.808593-86.511719-86.511719-86.511719-11.183593 0-21.878906 2.136719-31.703124 6.015625l-8.660157-8.660156c-3.472656-3.46875-8.085937-5.382812-13-5.382812h-74.371093c-1.417969 0-2.699219-.898438-3.179688-2.234376l-17.503906-48.523437c45.097656-43.351563 104.171875-67.171875 166.910156-67.171875 42.425781 0 84.140625 11.179688 120.632812 32.324219 3.667969 2.125 7.261719 4.367187 10.804688 6.683593v106.570313c0 .667969-.261719 1.296875-.734375 1.769531l-10.457031 10.460938c-3.304688 3.304687-5.125 7.699218-5.125 12.375v68.519531c0 4.675781 1.820312 9.070313 5.125 12.375l7.125 7.128906c2.570312 2.570313 5.824218 4.253907 9.40625 4.871094l50.730468 8.730469c.511719.089844.976563.328125 1.34375.699218l41.039063 41.039063c-10.949219 34.789063-29.785156 66.863281-55.582031 93.875zm0 0"/><path d="m236.277344 496.199219c-33.078125-2.683594-64.652344-11.96875-93.851563-27.601563-3.652343-1.957031-8.199219-.578125-10.152343 3.074219-1.957032 3.648437-.582032 8.195313 3.070312 10.148437 31.027344 16.613282 64.578125 26.480469 99.71875 29.328126.207031.015624.414062.023437.617188.023437 3.867187 0 7.148437-2.972656 7.464843-6.894531.335938-4.125-2.742187-7.742188-6.867187-8.078125zm0 0"/><path d="m237.507812 174.847656c-24.328124 0-44.121093 19.792969-44.121093 44.121094s19.792969 44.121094 44.121093 44.121094c24.328126 0 44.121094-19.792969 44.121094-44.121094s-19.792968-44.121094-44.121094-44.121094zm0 73.246094c-16.058593 0-29.121093-13.066406-29.121093-29.125s13.0625-29.121094 29.121093-29.121094c16.058594 0 29.121094 13.0625 29.121094 29.121094s-13.0625 29.125-29.121094 29.125zm0 0"/><path d="m103.445312 347.253906h17.988282c4.140625 0 7.5-3.355468 7.5-7.5 0-4.144531-3.359375-7.5-7.5-7.5h-17.988282c-4.140624 0-7.5 3.355469-7.5 7.5 0 4.144532 3.359376 7.5 7.5 7.5zm0 0"/><path d="m103.445312 375.042969h61.855469c4.140625 0 7.5-3.355469 7.5-7.5 0-4.140625-3.359375-7.5-7.5-7.5h-61.855469c-4.140624 0-7.5 3.359375-7.5 7.5 0 4.144531 3.359376 7.5 7.5 7.5zm0 0"/><path d="m103.445312 396.128906h61.855469c4.140625 0 7.5-3.355468 7.5-7.5 0-4.140625-3.359375-7.5-7.5-7.5h-61.855469c-4.140624 0-7.5 3.359375-7.5 7.5 0 4.144532 3.359376 7.5 7.5 7.5zm0 0"/></svg>