<svg xmlns="http://www.w3.org/2000/svg" height="619pt" version="1.1" viewBox="0 -10 619.05342 619" width="619pt">
<g id="surface1">
<path d="M 616.128906 142.738281 L 476.34375 2.949219 C 472.625 -0.765625 466.667969 -0.964844 462.710938 2.492188 L 309.527344 136.527344 L 156.34375 2.492188 C 152.382812 -0.964844 146.425781 -0.765625 142.710938 2.949219 L 2.925781 142.738281 C 1.054688 144.609375 0 147.148438 0 149.796875 L 0 489.277344 C 0 493.3125 2.433594 496.957031 6.164062 498.5 C 9.890625 500.046875 14.1875 499.1875 17.042969 496.335938 L 150.230469 363.152344 L 303 496.796875 C 306.761719 500.089844 312.382812 500.089844 316.148438 496.796875 L 317.09375 495.964844 C 337.195312 557.542969 394.625 599.199219 459.398438 599.1875 C 524.175781 599.171875 581.585938 557.488281 601.65625 495.90625 L 602.097656 496.347656 C 603.949219 498.195312 606.457031 499.242188 609.070312 499.261719 C 610.378906 499.265625 611.683594 499.007812 612.890625 498.5 C 616.621094 496.957031 619.054688 493.3125 619.054688 489.277344 L 619.054688 149.796875 C 619.054688 147.148438 618 144.609375 616.128906 142.738281 Z M 309.527344 476.007812 L 156.34375 341.972656 C 152.382812 338.515625 146.425781 338.714844 142.710938 342.433594 L 19.96875 465.171875 L 19.96875 153.929688 L 150.230469 23.671875 L 303 157.3125 C 306.757812 160.605469 312.375 160.605469 316.136719 157.3125 L 468.902344 23.671875 L 599.082031 153.929688 L 599.082031 396.011719 C 572.019531 323.707031 494.359375 283.894531 419.855469 304.132812 C 345.351562 324.367188 298.507812 398 311.746094 474.0625 Z M 459.296875 579.140625 C 387.609375 579.140625 329.496094 521.027344 329.496094 449.339844 C 329.496094 377.652344 387.609375 319.535156 459.296875 319.535156 C 530.984375 319.535156 589.097656 377.652344 589.097656 449.339844 C 589.015625 520.992188 530.949219 579.058594 459.296875 579.140625 Z M 459.296875 579.140625 " style=" stroke:none;fill-rule:nonzero;fill:rgb(0%,0%,0%);fill-opacity:1;" />
<path d="M 469.28125 349.492188 L 449.3125 349.492188 L 449.3125 439.355469 L 359.449219 439.355469 L 359.449219 459.324219 L 449.3125 459.324219 L 449.3125 539.203125 L 469.28125 539.203125 L 469.28125 459.324219 L 559.144531 459.324219 L 559.144531 439.355469 L 469.28125 439.355469 Z M 469.28125 349.492188 " style=" stroke:none;fill-rule:nonzero;fill:rgb(0%,0%,0%);fill-opacity:1;" />
</g>
</svg>